<?xml version="1.0" encoding="utf-8"?>
<!-- Generator: Adobe Illustrator 24.3.0, SVG Export Plug-In . SVG Version: 6.00 Build 0)  -->
<svg version="1.1" id="Layer_1" xmlns="http://www.w3.org/2000/svg" xmlns:xlink="http://www.w3.org/1999/xlink" x="0px" y="0px"
	 viewBox="0 0 90 90" style="enable-background:new 0 0 90 90;" xml:space="preserve">
<style type="text/css">
	.st0{fill:#FFFFFF;}
</style>
<path class="st0" d="M7,48.4L7.3,48l18-28.2c0.3-0.4,0.9-0.4,1.1,0.1c3,6.8,5.6,15.2,4.4,20.4c-0.5,2.2-1.9,5.1-3.5,7.8
	c-0.2,0.4-0.4,0.8-0.7,1.1c-0.1,0.2-0.3,0.3-0.5,0.3H7.5C7,49.4,6.7,48.8,7,48.4z"/>
<path class="st0" d="M87.4,53.7v4.5c0,0.3-0.2,0.5-0.4,0.6c-1.4,0.6-6.2,2.8-8.2,5.6c-5.1,7.1-9,17.2-17.6,17.2H25.1
	C12.3,81.5,1.9,71,1.9,58.2v-0.4c0-0.3,0.3-0.6,0.6-0.6h20.2c0.4,0,0.7,0.4,0.7,0.8c-0.1,1.3,0.1,2.7,0.7,3.9
	c1.2,2.4,3.7,3.9,6.4,3.9h10v-7.8h-9.9c-0.5,0-0.8-0.6-0.5-1c0.1-0.2,0.2-0.3,0.4-0.5c0.9-1.3,2.3-3.4,3.6-5.7
	c0.9-1.6,1.8-3.3,2.5-5c0.1-0.3,0.3-0.6,0.4-0.9c0.2-0.5,0.4-1,0.5-1.6c0.1-0.4,0.3-0.9,0.4-1.3c0.3-1.4,0.5-3,0.5-4.5
	c0-0.6,0-1.3-0.1-1.9c0-0.7-0.1-1.4-0.2-2c-0.1-0.6-0.2-1.2-0.3-1.8c-0.1-0.9-0.3-1.8-0.6-2.7L37,28.6c-0.2-0.6-0.3-1.2-0.5-1.8
	c-0.6-1.9-1.2-3.8-1.9-5.6c-0.2-0.7-0.5-1.4-0.8-2.1c-0.4-1-0.8-1.9-1.2-2.8c-0.2-0.4-0.4-0.8-0.5-1.1c-0.2-0.4-0.4-0.8-0.6-1.2
	c-0.1-0.3-0.3-0.6-0.4-0.9l-1.2-2.3c-0.2-0.3,0.1-0.7,0.4-0.6l7.6,2.1h0c0,0,0,0,0,0l1,0.3l1.1,0.3l0.4,0.1V8.4c0-2.2,1.8-4,3.9-4
	c1.1,0,2.1,0.4,2.8,1.2c0.7,0.7,1.1,1.7,1.1,2.8v6.7l0.8,0.2c0.1,0,0.1,0,0.2,0.1c0.2,0.1,0.5,0.4,0.8,0.6c0.3,0.2,0.6,0.5,1,0.8
	c0.7,0.6,1.6,1.4,2.6,2.2c0.3,0.2,0.5,0.4,0.7,0.7c1.2,1.2,2.6,2.5,4,4c0.4,0.4,0.7,0.8,1.1,1.3c0.4,0.5,0.8,0.9,1.1,1.4
	c0.4,0.6,0.9,1.2,1.4,1.9c0.2,0.3,0.4,0.6,0.6,0.9c0.5,0.8,1,1.7,1.5,2.5c0.2,0.4,0.4,0.8,0.6,1.2c0.5,1.1,0.9,2.3,1.2,3.4
	c0.1,0.2,0.1,0.5,0.2,0.8v0.1c0.1,0.3,0.1,0.7,0.1,1.1c0.1,1.2,0.1,2.4-0.2,3.6c-0.1,0.5-0.2,1-0.4,1.5c-0.2,0.5-0.3,1-0.6,1.5
	c-0.4,1-0.9,2-1.5,2.9c-0.2,0.3-0.4,0.7-0.6,1c-0.2,0.4-0.5,0.7-0.7,1c-0.3,0.4-0.6,0.9-1,1.3c-0.3,0.4-0.6,0.8-1,1.2
	c-0.5,0.6-0.9,1.1-1.4,1.6c-0.3,0.3-0.6,0.7-0.9,1c-0.3,0.3-0.6,0.6-0.9,0.9c-0.5,0.5-0.9,0.8-1.2,1.2l-0.8,0.7
	c-0.1,0.1-0.3,0.2-0.4,0.2h-6.1v7.8h7.6c1.7,0,3.3-0.6,4.6-1.7c0.4-0.4,2.4-2.1,4.7-4.6c0.1-0.1,0.2-0.1,0.3-0.2l21.1-6.1
	C87,53,87.4,53.3,87.4,53.7z"/>
</svg>
